<svg width="177" height="185" viewBox="0 0 177 185" fill="none" xmlns="http://www.w3.org/2000/svg">
<path d="M60.0909 76.875V96.7614L79.9773 109.545L99.8636 96.7614V76.875L79.9773 64.0909L60.0909 76.875ZM60.0909 76.875L44.8239 62.2727M123.705 134.062L89.7955 103.233M128.273 86.8182H99.8636M68.3409 102.068L44.0795 127.949M115.875 51.3693L94.9318 73.7045M48.7273 59.8295L37.3636 66.9318L26 59.8295V48.4659L37.3636 41.3636L48.7273 48.4659V59.8295ZM133.955 48.4659L122.591 55.5682L111.227 48.4659V37.1023L122.591 30L133.955 37.1023V48.4659ZM48.7273 142.216L37.3636 149.318L26 142.216V130.852L37.3636 123.75L48.7273 130.852V142.216ZM142.477 147.898L131.114 155L119.75 147.898V136.534L131.114 129.432L142.477 136.534V147.898ZM151 92.5L139.636 99.6023L128.273 92.5V81.1364L139.636 74.0341L151 81.1364V92.5Z" stroke="#A2CCF5" stroke-width="9" stroke-miterlimit="10" stroke-linecap="round" stroke-linejoin="round"/>
</svg>
